<svg xmlns="http://www.w3.org/2000/svg" viewBox="0 0 58.93 59.06"><defs><style>.cls-1{fill:#fff;}.cls-2{fill:#020203;}</style></defs><g id="Layer_2" data-name="Layer 2"><g id="Lager_1" data-name="Lager 1"><path class="cls-1" d="M29.47,59.06A29.53,29.53,0,1,0,0,29.53,29.49,29.49,0,0,0,29.47,59.06Z"/><path class="cls-2" d="M47.33,21.89V37.16a1,1,0,1,1-1.92,0V21.89a3.26,3.26,0,1,0-6.52,0V37.16a5.19,5.19,0,1,1-10.38,0V21.89a3.26,3.26,0,1,0-6.52,0V37.16a5.19,5.19,0,1,1-10.38,0V21.89a1,1,0,1,1,1.92,0V37.16a3.26,3.26,0,1,0,6.52,0V21.89a5.19,5.19,0,1,1,10.38,0V37.16a3.26,3.26,0,1,0,6.52,0V21.89a5.19,5.19,0,1,1,10.38,0Z"/></g></g></svg>