<svg xmlns="http://www.w3.org/2000/svg" viewBox="0 0 96.03 116.47"><defs><style>.cls-1{fill:#020203;}.cls-2{fill:#fff;}</style></defs><g id="Layer_2" data-name="Layer 2"><g id="Lager_1" data-name="Lager 1"><path class="cls-1" d="M16.75,92.2a7.72,7.72,0,0,1-2.29,6q-2.3,2.1-6.58,2.1a11.51,11.51,0,0,1-5.19-1.1,7.55,7.55,0,0,1-2.39-2,1.65,1.65,0,0,1,.1-2L2,93.4a.93.93,0,0,1,1.56.13,3.92,3.92,0,0,0,1.3,1.17,5.56,5.56,0,0,0,3.06.9,3.71,3.71,0,0,0,2.53-.77,2.93,2.93,0,0,0,.86-2.27,3.2,3.2,0,0,0-1.16-2.37,22.25,22.25,0,0,0-4.09-2.67,13.63,13.63,0,0,1-4.52-3.63A7.38,7.38,0,0,1,.21,79.56,7.12,7.12,0,0,1,2.5,74a9,9,0,0,1,6.22-2.07,9.24,9.24,0,0,1,4.19.9,8.39,8.39,0,0,1,2.16,1.67,1.52,1.52,0,0,1,0,2l-1.46,1.6a1,1,0,0,1-1.66-.1,2.92,2.92,0,0,0-.9-.63,4.46,4.46,0,0,0-2.36-.7,3.16,3.16,0,0,0-2.23.73,2.29,2.29,0,0,0-.83,1.8c0,1.43,2.79,3.47,2.79,3.47.6.43,1.26.87,1.5,1s1.16.7,1.8,1.07a20,20,0,0,1,3.69,3A7.64,7.64,0,0,1,16.75,92.2Z"/><path class="cls-1" d="M25,98.4a1.34,1.34,0,0,1-1.33,1.33H21a1.34,1.34,0,0,1-1.33-1.33V73.8A1.34,1.34,0,0,1,21,72.47H23.7A1.34,1.34,0,0,1,25,73.8Z"/><path class="cls-1" d="M52.43,98.4a1.34,1.34,0,0,1-1.33,1.33H48.54a2.78,2.78,0,0,1-2.06-1.1L35.31,82.43c-.4-.6-.76-.5-.76.23V98.39a1.34,1.34,0,0,1-1.33,1.33H30.66a1.34,1.34,0,0,1-1.33-1.33V73.79a1.34,1.34,0,0,1,1.33-1.33h2.56a2.78,2.78,0,0,1,2.06,1.1L46.42,89.69c.4.6.76.5.76-.23V73.8a1.34,1.34,0,0,1,1.33-1.33h2.56A1.34,1.34,0,0,1,52.4,73.8V98.4Z"/><path class="cls-1" d="M76.37,87.8a23.22,23.22,0,0,1-.17,2.63s-.66,5.07-2.39,7-4.16,2.87-7.35,2.87a9.22,9.22,0,0,1-7.32-3c-1.73-2-2.43-6.9-2.43-6.9a23.22,23.22,0,0,1-.17-2.63v-14a1.34,1.34,0,0,1,1.33-1.33H60.7A1.34,1.34,0,0,1,62,73.77V88.7a23.22,23.22,0,0,0,.17,2.63,6.51,6.51,0,0,0,1,2.67,4.77,4.77,0,0,0,6.65,0,6.25,6.25,0,0,0,.93-2.7,23.22,23.22,0,0,0,.17-2.63V73.81a1.34,1.34,0,0,1,1.33-1.33h2.83a1.34,1.34,0,0,1,1.33,1.33v14h0Z"/><path class="cls-1" d="M96,92.2a7.72,7.72,0,0,1-2.29,6c-1.53,1.4-3.73,2.1-6.58,2.1A11.48,11.48,0,0,1,82,99.2a7.55,7.55,0,0,1-2.39-2,1.65,1.65,0,0,1,.1-2l1.6-1.8a.93.93,0,0,1,1.56.13,3.92,3.92,0,0,0,1.3,1.17,5.56,5.56,0,0,0,3.06.9,3.71,3.71,0,0,0,2.53-.77,2.93,2.93,0,0,0,.87-2.27,3.2,3.2,0,0,0-1.16-2.37,22.25,22.25,0,0,0-4.09-2.67,13.63,13.63,0,0,1-4.52-3.63,7.38,7.38,0,0,1-1.33-4.33A7.12,7.12,0,0,1,81.79,74,9,9,0,0,1,88,71.92a9.24,9.24,0,0,1,4.19.9,8.39,8.39,0,0,1,2.16,1.67,1.52,1.52,0,0,1,0,2l-1.46,1.6a1,1,0,0,1-1.66-.1,2.92,2.92,0,0,0-.9-.63,4.46,4.46,0,0,0-2.36-.7,3.16,3.16,0,0,0-2.23.73,2.32,2.32,0,0,0-.83,1.8c0,1.43,2.79,3.47,2.79,3.47.6.43,1.26.87,1.5,1s1.16.7,1.8,1.07a20,20,0,0,1,3.69,3A7.5,7.5,0,0,1,96,92.2Z"/><path class="cls-2" d="M48,59.06A29.53,29.53,0,1,0,18.55,29.53,29.49,29.49,0,0,0,48,59.06Z"/><path class="cls-1" d="M65.88,21.89V37.16a1,1,0,1,1-1.92,0V21.89a3.26,3.26,0,1,0-6.52,0V37.16a5.19,5.19,0,1,1-10.38,0V21.89a3.26,3.26,0,1,0-6.52,0V37.16a5.19,5.19,0,1,1-10.38,0V21.89a1,1,0,1,1,1.92,0V37.16a3.26,3.26,0,1,0,6.52,0V21.89a5.19,5.19,0,1,1,10.38,0V37.16a3.26,3.26,0,1,0,6.52,0V21.89a5.19,5.19,0,1,1,10.38,0Z"/><path class="cls-1" d="M12.63,114.67A1.56,1.56,0,0,1,12,116a2.65,2.65,0,0,1-1.67.47,4.31,4.31,0,0,1-1.76-.29v-.72a4.33,4.33,0,0,0,.86.26,4.88,4.88,0,0,0,.92.1,1.83,1.83,0,0,0,1.12-.28.94.94,0,0,0,.38-.79,1,1,0,0,0-.14-.54,1.28,1.28,0,0,0-.45-.4,6.28,6.28,0,0,0-.95-.41A3,3,0,0,1,9,112.63a1.71,1.71,0,0,1-.38-1.15,1.42,1.42,0,0,1,.56-1.18,2.33,2.33,0,0,1,1.48-.44,4.39,4.39,0,0,1,1.76.35l-.23.65a4,4,0,0,0-1.55-.33,1.58,1.58,0,0,0-.93.25.85.85,0,0,0-.33.71,1.12,1.12,0,0,0,.12.55,1.19,1.19,0,0,0,.41.39,5.14,5.14,0,0,0,.9.39,3.61,3.61,0,0,1,1.39.77A1.52,1.52,0,0,1,12.63,114.67Zm7.75,1.71H19.5l-2.34-3.12-.67.6v2.52h-.75V110h.75v3.19L19.4,110h.88l-2.58,2.79Zm6.73,0-.8-2H23.73l-.79,2h-.76l2.54-6.45h.63l2.53,6.45Zm-1-2.72-.75-2a8.58,8.58,0,0,1-.3-.93,7.81,7.81,0,0,1-.28.93l-.76,2Zm6.47,2.72h-.75v-5.76h-2V110h4.82v.66h-2v5.76Zm8.39,0H37.35V110h3.58v.66H38.1v2.07h2.66v.66H38.1v2.36h2.83ZM44.16,110H46a3.48,3.48,0,0,1,1.85.38,1.35,1.35,0,0,1,.57,1.21,1.39,1.39,0,0,1-.32.94,1.49,1.49,0,0,1-.93.48v0c1,.17,1.46.68,1.46,1.54a1.64,1.64,0,0,1-.58,1.34,2.49,2.49,0,0,1-1.63.48H44.16Zm.74,2.75h1.23a2,2,0,0,0,1.14-.25,1,1,0,0,0,.35-.84.85.85,0,0,0-.39-.78,2.42,2.42,0,0,0-1.23-.24H44.9Zm0,.64v2.4h1.34a1.9,1.9,0,0,0,1.17-.3,1.12,1.12,0,0,0,.39-.94,1,1,0,0,0-.4-.88,2.12,2.12,0,0,0-1.22-.28Zm12.47-.18a3.55,3.55,0,0,1-.78,2.43,2.73,2.73,0,0,1-2.17.88,2.76,2.76,0,0,1-2.19-.87,3.6,3.6,0,0,1-.77-2.45,3.52,3.52,0,0,1,.77-2.43,2.78,2.78,0,0,1,2.2-.87,2.73,2.73,0,0,1,2.16.88A3.53,3.53,0,0,1,57.37,113.16Zm-5.12,0a3.05,3.05,0,0,0,.55,2,2,2,0,0,0,1.62.67,1.94,1.94,0,0,0,1.61-.67,3.12,3.12,0,0,0,.54-2,3.05,3.05,0,0,0-.54-2,1.93,1.93,0,0,0-1.6-.67,2,2,0,0,0-1.63.68A3,3,0,0,0,52.25,113.16Zm12.39,3.22-.8-2H61.26l-.79,2h-.76l2.54-6.45h.63l2.53,6.45Zm-1-2.72-.74-2a8.58,8.58,0,0,1-.3-.93c-.07.28-.16.59-.28.93l-.76,2Zm5.24,0v2.67H68.1V110h1.76a2.75,2.75,0,0,1,1.74.45,1.64,1.64,0,0,1,.57,1.36,1.7,1.7,0,0,1-1.29,1.72l1.74,2.89h-.88l-1.55-2.67Zm0-.65h1a1.77,1.77,0,0,0,1.16-.31,1.16,1.16,0,0,0,.37-.94,1.09,1.09,0,0,0-.38-.92,2,2,0,0,0-1.2-.28h-1Zm11.74,0a3.22,3.22,0,0,1-.87,2.43,3.4,3.4,0,0,1-2.48.84H75.46V110h2a3.16,3.16,0,0,1,2.33.83A3.13,3.13,0,0,1,80.59,113.1Zm-.79,0a2.57,2.57,0,0,0-.63-1.89,2.54,2.54,0,0,0-1.87-.64H76.21v5.13h.91a2.81,2.81,0,0,0,2-.65A2.61,2.61,0,0,0,79.8,113.13Zm7.66,1.54a1.56,1.56,0,0,1-.62,1.32,2.65,2.65,0,0,1-1.67.47,4.31,4.31,0,0,1-1.76-.29v-.72a4.33,4.33,0,0,0,.86.26,4.88,4.88,0,0,0,.92.1,1.83,1.83,0,0,0,1.12-.28.94.94,0,0,0,.38-.79,1,1,0,0,0-.14-.54,1.28,1.28,0,0,0-.45-.4,6.28,6.28,0,0,0-.95-.41,3,3,0,0,1-1.28-.76,1.71,1.71,0,0,1-.38-1.15,1.42,1.42,0,0,1,.56-1.18,2.33,2.33,0,0,1,1.48-.44,4.39,4.39,0,0,1,1.76.35l-.23.65a4,4,0,0,0-1.55-.33,1.58,1.58,0,0,0-.93.25.85.85,0,0,0-.33.71,1.12,1.12,0,0,0,.12.55,1.19,1.19,0,0,0,.41.39,4.82,4.82,0,0,0,.9.39,3.61,3.61,0,0,1,1.39.77A1.52,1.52,0,0,1,87.46,114.67Z"/></g></g></svg>